<svg width="573" height="524" viewBox="0 0 573 524" fill="none" xmlns="http://www.w3.org/2000/svg">
<path d="M573 354.964C573 500.005 240.026 539.652 151.451 518.834C41.5534 468.125 -7.44956e-06 367.093 -7.44956e-06 222.052C-7.44956e-06 77.0116 134.65 0 267.364 0C400.078 0 573 209.923 573 354.964Z" fill="#E3DBD4"/>
<path d="M573 354.964C573 500.005 240.026 539.652 151.451 518.834C41.5534 468.125 -7.44956e-06 367.093 -7.44956e-06 222.052C-7.44956e-06 77.0116 134.65 0 267.364 0C400.078 0 573 209.923 573 354.964Z" fill="black" fill-opacity="0.1"/>
</svg>
