<svg width="25" height="25" viewBox="0 0 25 25" fill="none" xmlns="http://www.w3.org/2000/svg">
<path d="M8.55 3H16.95C20.15 3 22.75 5.6 22.75 8.8V17.2C22.75 18.7383 22.1389 20.2135 21.0512 21.3012C19.9635 22.3889 18.4883 23 16.95 23H8.55C5.35 23 2.75 20.4 2.75 17.2V8.8C2.75 7.26174 3.36107 5.78649 4.44878 4.69878C5.53649 3.61107 7.01174 3 8.55 3ZM8.35 5C7.39522 5 6.47955 5.37928 5.80442 6.05442C5.12928 6.72955 4.75 7.64522 4.75 8.6V17.4C4.75 19.39 6.36 21 8.35 21H17.15C18.1048 21 19.0205 20.6207 19.6956 19.9456C20.3707 19.2705 20.75 18.3548 20.75 17.4V8.6C20.75 6.61 19.14 5 17.15 5H8.35ZM18 6.5C18.3315 6.5 18.6495 6.6317 18.8839 6.86612C19.1183 7.10054 19.25 7.41848 19.25 7.75C19.25 8.08152 19.1183 8.39946 18.8839 8.63388C18.6495 8.8683 18.3315 9 18 9C17.6685 9 17.3505 8.8683 17.1161 8.63388C16.8817 8.39946 16.75 8.08152 16.75 7.75C16.75 7.41848 16.8817 7.10054 17.1161 6.86612C17.3505 6.6317 17.6685 6.5 18 6.5ZM12.75 8C14.0761 8 15.3479 8.52678 16.2855 9.46447C17.2232 10.4021 17.75 11.6739 17.75 13C17.75 14.3261 17.2232 15.5979 16.2855 16.5355C15.3479 17.4732 14.0761 18 12.75 18C11.4239 18 10.1521 17.4732 9.21447 16.5355C8.27678 15.5979 7.75 14.3261 7.75 13C7.75 11.6739 8.27678 10.4021 9.21447 9.46447C10.1521 8.52678 11.4239 8 12.75 8ZM12.75 10C11.9544 10 11.1913 10.3161 10.6287 10.8787C10.0661 11.4413 9.75 12.2044 9.75 13C9.75 13.7956 10.0661 14.5587 10.6287 15.1213C11.1913 15.6839 11.9544 16 12.75 16C13.5456 16 14.3087 15.6839 14.8713 15.1213C15.4339 14.5587 15.75 13.7956 15.75 13C15.75 12.2044 15.4339 11.4413 14.8713 10.8787C14.3087 10.3161 13.5456 10 12.75 10Z" fill="#004146"/>
</svg>
