<svg width="25" height="25" viewBox="0 0 25 25" fill="none" xmlns="http://www.w3.org/2000/svg">
<path d="M22.96 6.70044C22.19 7.05044 21.36 7.28044 20.5 7.39044C21.38 6.86044 22.06 6.02044 22.38 5.01044C21.55 5.51044 20.63 5.86044 19.66 6.06044C18.87 5.20044 17.76 4.70044 16.5 4.70044C14.15 4.70044 12.23 6.62044 12.23 8.99044C12.23 9.33044 12.27 9.66044 12.34 9.97044C8.78 9.79044 5.61 8.08044 3.5 5.49044C3.13 6.12044 2.92 6.86044 2.92 7.64044C2.92 9.13044 3.67 10.4504 4.83 11.2004C4.12 11.2004 3.46 11.0004 2.88 10.7004C2.88 10.7004 2.88 10.7004 2.88 10.7304C2.88 12.8104 4.36 14.5504 6.32 14.9404C5.96 15.0404 5.58 15.0904 5.19 15.0904C4.92 15.0904 4.65 15.0604 4.39 15.0104C4.93 16.7004 6.5 17.9604 8.39 17.9904C6.93 19.1504 5.08 19.8304 3.06 19.8304C2.72 19.8304 2.38 19.8104 2.04 19.7704C3.94 20.9904 6.2 21.7004 8.62 21.7004C16.5 21.7004 20.83 15.1604 20.83 9.49044C20.83 9.30044 20.83 9.12044 20.82 8.93044C21.66 8.33044 22.38 7.57044 22.96 6.70044Z" fill="#004146"/>
</svg>
